<svg width="32" height="32" viewBox="0 0 32 32" fill="none" xmlns="http://www.w3.org/2000/svg">
<circle cx="16" cy="16" r="15.5" stroke="#C4C4C4"/>
<path d="M10.75 9.5C11.1562 9.5 11.5 9.84375 11.5 10.25V11.75C11.5 12.1875 11.1562 12.5 10.75 12.5H9.25C8.8125 12.5 8.5 12.1875 8.5 11.75V10.25C8.5 9.84375 8.8125 9.5 9.25 9.5H10.75ZM23 10C23.5312 10 24 10.4688 24 11C24 11.5625 23.5312 12 23 12H14C13.4375 12 13 11.5625 13 11C13 10.4688 13.4375 10 14 10H23ZM23 15C23.5312 15 24 15.4688 24 16C24 16.5625 23.5312 17 23 17H14C13.4375 17 13 16.5625 13 16C13 15.4688 13.4375 15 14 15H23ZM23 20C23.5312 20 24 20.4688 24 21C24 21.5625 23.5312 22 23 22H14C13.4375 22 13 21.5625 13 21C13 20.4688 13.4375 20 14 20H23ZM8.5 15.25C8.5 14.8438 8.8125 14.5 9.25 14.5H10.75C11.1562 14.5 11.5 14.8438 11.5 15.25V16.75C11.5 17.1875 11.1562 17.5 10.75 17.5H9.25C8.8125 17.5 8.5 17.1875 8.5 16.75V15.25ZM10.75 19.5C11.1562 19.5 11.5 19.8438 11.5 20.25V21.75C11.5 22.1875 11.1562 22.5 10.75 22.5H9.25C8.8125 22.5 8.5 22.1875 8.5 21.75V20.25C8.5 19.8438 8.8125 19.5 9.25 19.5H10.75Z" fill="black"/>
</svg>
