<svg width="32" height="32" viewBox="0 0 32 32" fill="none" xmlns="http://www.w3.org/2000/svg">
<circle cx="16" cy="16" r="15.5" stroke="#C4C4C4"/>
<path d="M23 22C23 22.5625 22.5312 23 22 23H19C18.4375 23 18 22.5625 18 22C18 21.4688 18.4375 21 19 21H19.5V16.5H12.5V21H13C13.5312 21 14 21.4688 14 22C14 22.5625 13.5312 23 13 23H10C9.4375 23 9 22.5625 9 22C9 21.4688 9.4375 21 10 21H10.5V11H10C9.4375 11 9 10.5625 9 10C9 9.46875 9.4375 9 10 9H13C13.5312 9 14 9.46875 14 10C14 10.5625 13.5312 11 13 11H12.5V14.5H19.5V11H19C18.4375 11 18 10.5625 18 10C18 9.46875 18.4375 9 19 9H22C22.5312 9 23 9.46875 23 10C23 10.5625 22.5312 11 22 11H21.5V21H22C22.5312 21 23 21.4688 23 22Z" fill="black"/>
</svg>
