<svg width="34" height="34" viewBox="0 0 34 34" fill="none" xmlns="http://www.w3.org/2000/svg">
<circle cx="17" cy="17" r="17" fill="#E8E9EB"/>
<path d="M10.5547 17.3594C10.5547 16.9766 10.875 16.6562 11.25 16.6562H16.3047V11.6094C16.3047 11.2344 16.6172 10.9141 17 10.9141C17.3828 10.9141 17.7031 11.2344 17.7031 11.6094V16.6562H22.75C23.125 16.6562 23.4453 16.9766 23.4453 17.3594C23.4453 17.7422 23.125 18.0547 22.75 18.0547H17.7031V23.1094C17.7031 23.4844 17.3828 23.8047 17 23.8047C16.6172 23.8047 16.3047 23.4844 16.3047 23.1094V18.0547H11.25C10.875 18.0547 10.5547 17.7422 10.5547 17.3594Z" fill="#7D7F85"/>
</svg>
