<svg width="20" height="16" viewBox="0 0 20 16" fill="none" xmlns="http://www.w3.org/2000/svg">
<path d="M7 8C4.78125 8 3 6.21875 3 4C3 1.8125 4.78125 0 7 0C9.1875 0 11 1.8125 11 4C11 6.21875 9.1875 8 7 8ZM8.5625 9.5C11.5625 9.5 14 11.9375 14 14.9375C14 15.5312 13.5 16 12.9062 16H1.0625C0.46875 16 0 15.5312 0 14.9375C0 11.9375 2.40625 9.5 5.40625 9.5H8.5625ZM19.25 6.25C19.6562 6.25 20 6.59375 20 7C20 7.4375 19.6562 7.75 19.25 7.75H17.75V9.25C17.75 9.6875 17.4062 10 17 10C16.5625 10 16.25 9.6875 16.25 9.25V7.75H14.75C14.3125 7.75 14 7.4375 14 7C14 6.59375 14.3125 6.25 14.75 6.25H16.25V4.75C16.25 4.34375 16.5625 4 17 4C17.4062 4 17.75 4.34375 17.75 4.75V6.25H19.25Z" fill="black"/>
</svg>
