<svg width="22" height="19" viewBox="0 0 22 19" fill="none" xmlns="http://www.w3.org/2000/svg">
<path fill-rule="evenodd" clip-rule="evenodd" d="M22 8.80542C22 3.97937 17.0977 0 11.0344 0C4.928 0 0.0257188 3.97937 0.0257188 8.80542C0.0257188 10.9221 0.928771 12.8271 2.43386 14.3511C1.99094 16.2043 0.597625 17.8391 0.211689 18.2919C0.147981 18.3666 0.111724 18.4092 0.111724 18.4152C-0.0172837 18.4998 -0.0172837 18.6692 0.0257188 18.7962C0.0687213 18.9232 0.197729 18.9655 0.369739 18.9655C3.2079 18.9655 5.31503 17.6532 6.39009 16.8065C7.80917 17.3145 9.35726 17.6108 11.0344 17.6108C17.0977 17.6108 22 13.6738 22 8.80542ZM14.8282 9.50393C15.1937 9.50393 15.5162 9.18642 15.5162 8.80542C15.5162 8.44558 15.1937 8.12808 14.8282 8.14925H11.732V5.10122C11.732 4.72021 11.4095 4.40271 11.0439 4.40271C10.6569 4.40271 10.3559 4.72021 10.3559 5.10122V8.14925H7.25971C6.87269 8.14925 6.57167 8.44558 6.57167 8.80542C6.57167 9.18642 6.87269 9.50393 7.25971 9.50393H10.3559V12.552C10.3559 12.9118 10.6569 13.2081 11.0439 13.2081C11.4095 13.2081 11.732 12.9118 11.732 12.552V9.50393H14.8282Z" fill="white"/>
</svg>
