<svg width="15" height="15" viewBox="0 0 15 15" fill="none" xmlns="http://www.w3.org/2000/svg">
<path d="M9.375 10.2188V8.8125H15V13.0312C15 13.793 14.3262 14.4375 13.5938 14.4375H1.40625C0.644531 14.4375 0 13.793 0 13.0312V8.8125H5.625V10.2188C5.625 10.4824 5.83008 10.6875 6.09375 10.6875H8.90625C9.14062 10.6875 9.375 10.4824 9.375 10.2188ZM13.5938 3.1875C14.3262 3.1875 15 3.86133 15 4.59375V7.875H0V4.59375C0 3.86133 0.644531 3.1875 1.40625 3.1875H3.75V1.78125C3.75 1.04883 4.39453 0.375 5.15625 0.375H9.84375C10.5762 0.375 11.25 1.04883 11.25 1.78125V3.1875H13.5938ZM9.84375 3.1875V1.78125H5.15625V3.1875H9.84375Z" fill="white"/>
</svg>
