<svg width="15" height="17" viewBox="0 0 15 17" fill="none" xmlns="http://www.w3.org/2000/svg">
<path d="M14.5 11C14.5 11.4688 14.2812 11.8438 14 12.1562V14.6875C14.2812 14.875 14.5 15.1875 14.5 15.5312C14.5 16.0625 14.0312 16.5 13.5 16.5H3.5C1.8125 16.5 0.5 15.1875 0.5 13.5V3.5C0.5 1.84375 1.8125 0.5 3.5 0.5H13C13.8125 0.5 14.5 1.1875 14.5 2V11ZM4.96875 4.5C4.71875 4.5 4.5 4.75 4.5 5C4.5 5.28125 4.71875 5.5 4.96875 5.5H11C11.25 5.5 11.5 5.28125 11.5 5C11.5 4.75 11.25 4.5 10.9688 4.5H4.96875ZM4.96875 6.5C4.71875 6.5 4.5 6.75 4.5 7C4.5 7.28125 4.71875 7.5 4.96875 7.5H11C11.25 7.5 11.5 7.28125 11.5 7C11.5 6.75 11.25 6.5 10.9688 6.5H4.96875ZM12.5 14.5V12.5H3.5C2.9375 12.5 2.5 12.9688 2.5 13.5C2.5 14.0625 2.9375 14.5 3.5 14.5H12.5Z" fill="black"/>
</svg>
