<svg width="18" height="18" viewBox="0 0 18 18" fill="none" xmlns="http://www.w3.org/2000/svg">
<path d="M11.25 12.0625V10.375H18V15.4375C18 16.3516 17.1914 17.125 16.3125 17.125H1.6875C0.773438 17.125 0 16.3516 0 15.4375V10.375H6.75V12.0625C6.75 12.3789 6.99609 12.625 7.3125 12.625H10.6875C10.9688 12.625 11.25 12.3789 11.25 12.0625ZM16.3125 3.625C17.1914 3.625 18 4.43359 18 5.3125V9.25H0V5.3125C0 4.43359 0.773438 3.625 1.6875 3.625H4.5V1.9375C4.5 1.05859 5.27344 0.25 6.1875 0.25H11.8125C12.6914 0.25 13.5 1.05859 13.5 1.9375V3.625H16.3125ZM11.8125 3.625V1.9375H6.1875V3.625H11.8125Z" fill="black"/>
</svg>
