<svg width="11" height="15" viewBox="0 0 11 15" fill="none" xmlns="http://www.w3.org/2000/svg">
<path d="M9.6875 0.75C10.3984 0.75 11 1.35156 11 2.0625V13.4375C11 14.1758 10.3984 14.75 9.6875 14.75H7.0625V12.5625C7.0625 11.8516 6.46094 11.25 5.75 11.25C5.01172 11.25 4.4375 11.8516 4.4375 12.5625V14.75H1.8125C1.07422 14.75 0.5 14.1758 0.5 13.4375V2.0625C0.5 1.35156 1.07422 0.75 1.8125 0.75H9.6875ZM2.25 8.1875C2.25 8.43359 2.44141 8.625 2.6875 8.625H3.5625C3.78125 8.625 4 8.43359 4 8.1875V7.3125C4 7.09375 3.78125 6.875 3.5625 6.875H2.6875C2.44141 6.875 2.25 7.09375 2.25 7.3125V8.1875ZM5.3125 6.875C5.06641 6.875 4.875 7.09375 4.875 7.3125V8.1875C4.875 8.43359 5.06641 8.625 5.3125 8.625H6.1875C6.40625 8.625 6.625 8.43359 6.625 8.1875V7.3125C6.625 7.09375 6.40625 6.875 6.1875 6.875H5.3125ZM7.5 8.1875C7.5 8.43359 7.69141 8.625 7.9375 8.625H8.8125C9.03125 8.625 9.25 8.43359 9.25 8.1875V7.3125C9.25 7.09375 9.03125 6.875 8.8125 6.875H7.9375C7.69141 6.875 7.5 7.09375 7.5 7.3125V8.1875ZM2.6875 3.375C2.44141 3.375 2.25 3.59375 2.25 3.8125V4.6875C2.25 4.93359 2.44141 5.125 2.6875 5.125H3.5625C3.78125 5.125 4 4.93359 4 4.6875V3.8125C4 3.59375 3.78125 3.375 3.5625 3.375H2.6875ZM4.875 4.6875C4.875 4.93359 5.06641 5.125 5.3125 5.125H6.1875C6.40625 5.125 6.625 4.93359 6.625 4.6875V3.8125C6.625 3.59375 6.40625 3.375 6.1875 3.375H5.3125C5.06641 3.375 4.875 3.59375 4.875 3.8125V4.6875ZM7.9375 3.375C7.69141 3.375 7.5 3.59375 7.5 3.8125V4.6875C7.5 4.93359 7.69141 5.125 7.9375 5.125H8.8125C9.03125 5.125 9.25 4.93359 9.25 4.6875V3.8125C9.25 3.59375 9.03125 3.375 8.8125 3.375H7.9375Z" fill="#707070"/>
</svg>
