<svg width="11" height="13" viewBox="0 0 11 13" fill="none" xmlns="http://www.w3.org/2000/svg">
<path d="M4.0625 2H7.4375V1.0625C7.4375 0.757812 7.67188 0.5 8 0.5C8.30469 0.5 8.5625 0.757812 8.5625 1.0625V2H9.5C10.3203 2 11 2.67969 11 3.5V11C11 11.8438 10.3203 12.5 9.5 12.5H2C1.15625 12.5 0.5 11.8438 0.5 11V3.5C0.5 2.67969 1.15625 2 2 2H2.9375V1.0625C2.9375 0.757812 3.17188 0.5 3.5 0.5C3.80469 0.5 4.0625 0.757812 4.0625 1.0625V2ZM1.625 6.3125H3.5V5H1.625V6.3125ZM1.625 7.4375V8.9375H3.5V7.4375H1.625ZM4.625 7.4375V8.9375H6.875V7.4375H4.625ZM8 7.4375V8.9375H9.875V7.4375H8ZM9.875 5H8V6.3125H9.875V5ZM9.875 10.0625H8V11.375H9.5C9.6875 11.375 9.875 11.2109 9.875 11V10.0625ZM6.875 10.0625H4.625V11.375H6.875V10.0625ZM3.5 10.0625H1.625V11C1.625 11.2109 1.78906 11.375 2 11.375H3.5V10.0625ZM6.875 5H4.625V6.3125H6.875V5Z" fill="#707070"/>
</svg>
