<svg width="36" height="33" viewBox="0 0 36 33" fill="none" xmlns="http://www.w3.org/2000/svg">
<path d="M13.6406 0.75H22.2891C23.7656 0.75 25.0312 1.73438 25.4531 3.07031L26.2266 5.25H31.5C33.9609 5.25 36 7.28906 36 9.75V27.75C36 30.2812 33.9609 32.25 31.5 32.25H4.5C1.96875 32.25 0 30.2812 0 27.75V9.75C0 7.28906 1.96875 5.25 4.5 5.25H9.70312L10.4766 3.07031C10.8984 1.73438 12.1641 0.75 13.6406 0.75ZM18 25.5C21.7266 25.5 24.75 22.4766 24.75 18.75C24.75 15.0234 21.7266 12 18 12C14.2031 12 11.25 15.0234 11.25 18.75C11.25 22.4766 14.2031 25.5 18 25.5Z" fill="white"/>
</svg>
