<svg width="161" height="160" viewBox="0 0 161 160" fill="none" xmlns="http://www.w3.org/2000/svg">
<rect x="0.5" width="160" height="160" fill="#A8C0DB"/>
<path d="M74.6875 59H86.2188C88.1875 59 89.875 60.3125 90.4375 62.0938L91.4688 65H98.5C101.781 65 104.5 67.7188 104.5 71V95C104.5 98.375 101.781 101 98.5 101H62.5C59.125 101 56.5 98.375 56.5 95V71C56.5 67.7188 59.125 65 62.5 65H69.4375L70.4688 62.0938C71.0312 60.3125 72.7188 59 74.6875 59ZM80.5 92C85.4688 92 89.5 87.9688 89.5 83C89.5 78.0312 85.4688 74 80.5 74C75.4375 74 71.5 78.0312 71.5 83C71.5 87.9688 75.4375 92 80.5 92Z" fill="white"/>
</svg>
