<svg width="18" height="18" viewBox="0 0 18 18" fill="none" xmlns="http://www.w3.org/2000/svg">
<path d="M8.95264 17.4736C10.1092 17.4736 11.1966 17.2523 12.2148 16.8096C13.2386 16.3669 14.1406 15.7554 14.9209 14.9751C15.7012 14.1948 16.3127 13.2956 16.7554 12.2773C17.1981 11.2536 17.4194 10.1634 17.4194 9.00684C17.4194 7.85026 17.1981 6.76286 16.7554 5.74463C16.3127 4.72087 15.7012 3.81885 14.9209 3.03857C14.1406 2.2583 13.2386 1.64681 12.2148 1.2041C11.1911 0.761393 10.1009 0.540039 8.94434 0.540039C7.78776 0.540039 6.69759 0.761393 5.67383 1.2041C4.6556 1.64681 3.75635 2.2583 2.97607 3.03857C2.20133 3.81885 1.59261 4.72087 1.1499 5.74463C0.707194 6.76286 0.48584 7.85026 0.48584 9.00684C0.48584 10.1634 0.707194 11.2536 1.1499 12.2773C1.59261 13.2956 2.2041 14.1948 2.98438 14.9751C3.76465 15.7554 4.6639 16.3669 5.68213 16.8096C6.70589 17.2523 7.79606 17.4736 8.95264 17.4736ZM6.16357 12.4932C5.97542 12.4932 5.81494 12.4268 5.68213 12.2939C5.54932 12.1556 5.48291 11.9924 5.48291 11.8042C5.48291 11.616 5.54932 11.4556 5.68213 11.3228L7.98975 9.01514L5.68213 6.71582C5.54932 6.57747 5.48291 6.41699 5.48291 6.23438C5.48291 6.04069 5.54932 5.88021 5.68213 5.75293C5.81494 5.62012 5.97542 5.55371 6.16357 5.55371C6.34619 5.55371 6.50667 5.61735 6.64502 5.74463L8.96094 8.05225L11.2935 5.73633C11.4263 5.60352 11.584 5.53711 11.7666 5.53711C11.9548 5.53711 12.1152 5.60352 12.248 5.73633C12.3809 5.86914 12.4473 6.02962 12.4473 6.21777C12.4473 6.40592 12.3809 6.56917 12.248 6.70752L9.93213 9.01514L12.2397 11.3145C12.3726 11.4362 12.439 11.5994 12.439 11.8042C12.439 11.9924 12.3726 12.1556 12.2397 12.2939C12.1069 12.4268 11.9437 12.4932 11.75 12.4932C11.5508 12.4932 11.3875 12.4268 11.2603 12.2939L8.96094 9.98633L6.66992 12.2939C6.53158 12.4268 6.36279 12.4932 6.16357 12.4932Z" fill="#3C3C43" fill-opacity="0.6"/>
</svg>
