<svg width="14" height="15" viewBox="0 0 14 15" fill="none" xmlns="http://www.w3.org/2000/svg">
<path d="M7 14.75C3.11719 14.75 0 11.6328 0 7.75C0 3.89453 3.11719 0.75 7 0.75C10.8555 0.75 14 3.89453 14 7.75C14 11.6328 10.8555 14.75 7 14.75ZM6.34375 7.75C6.34375 7.96875 6.45312 8.1875 6.61719 8.29688L9.24219 10.0469C9.54297 10.2656 9.95312 10.1836 10.1445 9.88281C10.3633 9.58203 10.2812 9.17188 9.98047 8.95312L7.65625 7.42188V4.03125C7.65625 3.67578 7.35547 3.375 6.97266 3.375C6.61719 3.375 6.31641 3.67578 6.31641 4.03125L6.34375 7.75Z" fill="black"/>
</svg>
