<svg width="20" height="19" viewBox="0 0 20 19" fill="none" xmlns="http://www.w3.org/2000/svg">
<path d="M10 0.75C15.5078 0.75 19.9609 4.42188 19.9609 8.875C19.9609 13.3281 15.5469 17 10 17C8.51562 17 7.10938 16.6875 5.82031 16.2188C4.80469 17 2.92969 18.25 0.3125 18.25C0.195312 18.25 0.078125 18.1719 0.0390625 18.0547C0 17.9375 0 17.7812 0.117188 17.7031C0.117188 17.7031 1.75781 15.9453 2.22656 13.9531C0.859375 12.5859 0 10.7891 0 8.875C0 4.38281 4.45312 0.75 10 0.75ZM4.96094 10.125C5.66406 10.125 6.21094 9.57812 6.21094 8.875C6.21094 8.21094 5.625 7.625 4.96094 7.625C4.25781 7.625 3.71094 8.25 3.71094 8.875C3.71094 9.53906 4.25781 10.125 4.96094 10.125ZM10 10.125C10.6641 10.125 11.2109 9.57812 11.2109 8.875C11.2109 8.21094 10.625 7.625 10 7.625C9.33594 7.625 8.75 8.25 8.75 8.875C8.75 9.53906 9.29688 10.125 10 10.125ZM14.9609 10.125C15.6641 10.125 16.2109 9.57812 16.2109 8.875C16.2109 8.21094 15.625 7.625 14.9609 7.625C14.2578 7.625 13.7109 8.25 13.7109 8.875C13.7109 9.53906 14.2578 10.125 14.9609 10.125Z" fill="white"/>
</svg>
