<svg width="17" height="16" viewBox="0 0 17 16" fill="none" xmlns="http://www.w3.org/2000/svg">
<path d="M9.00003 0C13.4098 0 16.9751 3.35714 16.9751 7.42857C16.9751 11.5357 13.4098 14.8571 9.00003 14.8571C7.96797 14.8571 6.96717 14.6786 6.09148 14.3571C5.15324 15.1071 3.65205 16 1.74429 16C1.43154 16 1.15007 15.8214 1.02497 15.5C0.931143 15.1786 0.962418 14.8214 1.18134 14.5714C1.21262 14.5714 2.18213 13.3571 2.61998 11.9643C1.58791 10.7143 0.993693 9.14286 0.993693 7.42857C0.993693 3.35714 4.55902 0 9.00003 0ZM9.00003 13.1429C12.5654 13.1429 15.5052 10.6071 15.5052 7.42857C15.5052 4.28571 12.5654 1.71429 9.00003 1.71429C5.40343 1.71429 2.49488 4.28571 2.49488 7.42857C2.49488 8.96429 3.15165 10.1071 3.7146 10.7857L4.37137 11.5714L4.02735 12.5714C3.87097 13.0714 3.65205 13.5714 3.40185 14C4.15244 13.7143 4.77794 13.3214 5.21579 12.9643L5.81001 12.4643L6.52933 12.7143C7.3112 13 8.15561 13.1429 9.00003 13.1429Z" fill="black"/>
</svg>
