<svg width="21" height="17" viewBox="0 0 21 17" fill="none" xmlns="http://www.w3.org/2000/svg">
<path d="M18.375 0.375C19.6055 0.375 20.625 1.39453 20.625 2.625V13.875C20.625 15.1406 19.6055 16.125 18.375 16.125H2.625C1.35938 16.125 0.375 15.1406 0.375 13.875V2.625C0.375 1.39453 1.35938 0.375 2.625 0.375H18.375ZM6.5625 3.75C5.29688 3.75 4.3125 4.76953 4.3125 6C4.3125 7.26562 5.29688 8.25 6.5625 8.25C7.79297 8.25 8.8125 7.26562 8.8125 6C8.8125 4.76953 7.79297 3.75 6.5625 3.75ZM9.9375 12.75C10.2188 12.75 10.5 12.5039 10.5 12.1875C10.5 10.6406 9.23438 9.375 7.6875 9.375H5.4375C3.85547 9.375 2.625 10.6406 2.625 12.1875C2.625 12.5039 2.87109 12.75 3.1875 12.75H9.9375ZM17.8125 10.5C18.0938 10.5 18.375 10.2539 18.375 9.9375C18.375 9.65625 18.0938 9.375 17.8125 9.375H13.3125C12.9961 9.375 12.75 9.65625 12.75 9.9375C12.75 10.2539 12.9961 10.5 13.3125 10.5H17.8125ZM17.8125 8.25C18.0938 8.25 18.375 8.00391 18.375 7.6875C18.375 7.40625 18.0938 7.125 17.8125 7.125H13.3125C12.9961 7.125 12.75 7.40625 12.75 7.6875C12.75 8.00391 12.9961 8.25 13.3125 8.25H17.8125ZM17.8125 6C18.0938 6 18.375 5.75391 18.375 5.4375C18.375 5.15625 18.0938 4.875 17.8125 4.875H13.3125C12.9961 4.875 12.75 5.15625 12.75 5.4375C12.75 5.75391 12.9961 6 13.3125 6H17.8125Z" fill="black"/>
</svg>
