<svg width="43" height="43" viewBox="0 0 43 43" fill="none" xmlns="http://www.w3.org/2000/svg">
<path d="M43 21.5C43 33.3741 33.3741 43 21.5 43C9.62588 43 0 33.3741 0 21.5C0 9.62588 9.62588 0 21.5 0C33.3741 0 43 9.62588 43 21.5Z" fill="#323232"/>
<path d="M29.375 14.375C30.6055 14.375 31.625 15.3945 31.625 16.625V27.875C31.625 29.1406 30.6055 30.125 29.375 30.125H13.625C12.3594 30.125 11.375 29.1406 11.375 27.875V16.625C11.375 15.3945 12.3594 14.375 13.625 14.375H29.375ZM17.5625 17.75C16.2969 17.75 15.3125 18.7695 15.3125 20C15.3125 21.2656 16.2969 22.25 17.5625 22.25C18.793 22.25 19.8125 21.2656 19.8125 20C19.8125 18.7695 18.793 17.75 17.5625 17.75ZM20.9375 26.75C21.2188 26.75 21.5 26.5039 21.5 26.1875C21.5 24.6406 20.2344 23.375 18.6875 23.375H16.4375C14.8555 23.375 13.625 24.6406 13.625 26.1875C13.625 26.5039 13.8711 26.75 14.1875 26.75H20.9375ZM28.8125 24.5C29.0938 24.5 29.375 24.2539 29.375 23.9375C29.375 23.6562 29.0938 23.375 28.8125 23.375H24.3125C23.9961 23.375 23.75 23.6562 23.75 23.9375C23.75 24.2539 23.9961 24.5 24.3125 24.5H28.8125ZM28.8125 22.25C29.0938 22.25 29.375 22.0039 29.375 21.6875C29.375 21.4062 29.0938 21.125 28.8125 21.125H24.3125C23.9961 21.125 23.75 21.4062 23.75 21.6875C23.75 22.0039 23.9961 22.25 24.3125 22.25H28.8125ZM28.8125 20C29.0938 20 29.375 19.7539 29.375 19.4375C29.375 19.1562 29.0938 18.875 28.8125 18.875H24.3125C23.9961 18.875 23.75 19.1562 23.75 19.4375C23.75 19.7539 23.9961 20 24.3125 20H28.8125Z" fill="white"/>
</svg>
