<svg width="14" height="16" viewBox="0 0 14 16" fill="none" xmlns="http://www.w3.org/2000/svg">
<path d="M4.21875 0.5625C4.375 0.21875 4.71875 0 5.09375 0H8.875C9.25 0 9.59375 0.21875 9.75 0.5625L10 1H13C13.5312 1 14 1.46875 14 2C14 2.5625 13.5312 3 13 3H1C0.4375 3 0 2.5625 0 2C0 1.46875 0.4375 1 1 1H4L4.21875 0.5625ZM0.96875 4H13V14C13 15.125 12.0938 16 11 16H2.96875C1.875 16 0.96875 15.125 0.96875 14V4ZM3.46875 6.5V13.5C3.46875 13.7812 3.71875 14 3.96875 14C4.25 14 4.46875 13.7812 4.46875 13.5V6.5C4.46875 6.25 4.25 6 3.96875 6C3.71875 6 3.46875 6.25 3.46875 6.5ZM6.46875 6.5V13.5C6.46875 13.7812 6.71875 14 6.96875 14C7.25 14 7.5 13.7812 7.5 13.5V6.5C7.5 6.25 7.25 6 6.96875 6C6.71875 6 6.46875 6.25 6.46875 6.5ZM9.5 6.5V13.5C9.5 13.7812 9.71875 14 10 14C10.25 14 10.5 13.7812 10.5 13.5V6.5C10.5 6.25 10.25 6 10 6C9.71875 6 9.5 6.25 9.5 6.5Z" fill="#FF3B30"/>
</svg>
