<svg width="16" height="16" viewBox="0 0 16 16" fill="none" xmlns="http://www.w3.org/2000/svg">
<path d="M15 11C15.5312 11 16 11.4688 16 12V15C16 15.5625 15.5312 16 15 16H1C0.4375 16 0 15.5625 0 15V12C0 11.4688 0.4375 11 1 11H5.15625L6.5625 12.4375C6.9375 12.8125 7.4375 13 8 13C8.53125 13 9.03125 12.8125 9.40625 12.4375L10.8125 11H15ZM13.5 14.25C13.9062 14.25 14.25 13.9375 14.25 13.5C14.25 13.0938 13.9062 12.75 13.5 12.75C13.0625 12.75 12.75 13.0938 12.75 13.5C12.75 13.9375 13.0625 14.25 13.5 14.25ZM7.28125 11.7188L3.28125 7.71875C2.875 7.34375 2.875 6.6875 3.28125 6.3125C3.65625 5.90625 4.3125 5.90625 4.6875 6.3125L7 8.59375V1C7 0.46875 7.4375 0 8 0C8.53125 0 9 0.46875 9 1V8.59375L11.2812 6.3125C11.6562 5.90625 12.3125 5.90625 12.6875 6.3125C13.0938 6.6875 13.0938 7.34375 12.6875 7.71875L8.6875 11.7188C8.5 11.9062 8.25 12 8 12C7.71875 12 7.46875 11.9062 7.28125 11.7188Z" fill="#000000"/>
</svg>
