<svg width="15" height="16" viewBox="0 0 15 16" fill="none" xmlns="http://www.w3.org/2000/svg">
<path d="M15 7.875C15 12.0352 11.6309 15.375 7.5 15.375C3.33984 15.375 0 12.0352 0 7.875C0 3.74414 3.33984 0.375 7.5 0.375C11.6309 0.375 15 3.74414 15 7.875ZM2.90039 4.62305C2.25586 5.56055 1.875 6.67383 1.875 7.875C1.875 10.9805 4.36523 13.5 7.5 13.5C8.70117 13.5 9.81445 13.1191 10.752 12.4746L2.90039 4.62305ZM13.125 7.875C13.125 4.76953 10.6055 2.25 7.5 2.25C6.26953 2.25 5.15625 2.66016 4.21875 3.30469L12.0703 11.1562C12.7148 10.2188 13.125 9.10547 13.125 7.875Z" fill="white"/>
</svg>
