<svg width="27" height="21" viewBox="0 0 27 21" fill="none" xmlns="http://www.w3.org/2000/svg">
<path d="M6.85938 4.13281C8.61719 2.80469 10.8047 1.75 13.5 1.75C16.625 1.75 19.1641 3.19531 21 4.91406C22.8359 6.59375 24.0469 8.625 24.6328 10.0312C24.75 10.3438 24.75 10.6953 24.6328 11.0078C24.125 12.2578 23.0703 14.0547 21.5078 15.6172L25.6094 18.8594C26.0391 19.1719 26.1172 19.7578 25.7656 20.1484C25.4531 20.5781 24.8672 20.6562 24.4766 20.3047L1.35156 2.17969C0.921875 1.86719 0.84375 1.28125 1.19531 0.890625C1.50781 0.460938 2.09375 0.382812 2.48438 0.734375L6.85938 4.13281ZM9.71094 6.35938L13.2266 9.13281C13.3828 8.78125 13.5 8.42969 13.5 8C13.5 7.57031 13.3438 7.14062 13.1484 6.78906C13.2656 6.78906 13.3828 6.75 13.5 6.75C15.5703 6.75 17.25 8.42969 17.25 10.5C17.25 11.0469 17.1328 11.5547 16.8984 12.0234L18.4219 13.1953C18.8516 12.4141 19.125 11.4766 19.125 10.5C19.125 7.41406 16.5859 4.875 13.5 4.875C12.0156 4.875 10.6875 5.46094 9.71094 6.35938ZM13.5 19.25C10.3359 19.25 7.79688 17.8438 5.96094 16.125C4.125 14.4062 2.91406 12.375 2.32812 11.0078C2.21094 10.6953 2.21094 10.3438 2.32812 10.0312C2.71875 9.13281 3.34375 8 4.24219 6.82812L7.91406 9.71875C7.875 9.99219 7.875 10.2656 7.875 10.5C7.875 13.625 10.375 16.125 13.5 16.125C14.2031 16.125 14.9062 16.0078 15.5703 15.7344L18.4219 18C16.9766 18.7812 15.3359 19.25 13.5 19.25Z" fill="#707070"/>
</svg>
