<svg width="12" height="17" viewBox="0 0 12 17" fill="none" xmlns="http://www.w3.org/2000/svg">
<path d="M11.4062 3.4375C11.7812 3.8125 12 4.3125 12 4.84375V14.5C12 15.625 11.0938 16.5 10 16.5H2C0.875 16.5 0 15.625 0 14.5V2.5C0 1.40625 0.875 0.5 2 0.5H7.65625C8.1875 0.5 8.6875 0.71875 9.0625 1.09375L11.4062 3.4375ZM10.5 14.5H10.4688V5.5H8C7.4375 5.5 7 5.0625 7 4.5V2.03125H2C1.71875 2.03125 1.5 2.25 1.5 2.53125V14.5C1.5 14.7812 1.71875 15 2 15H10C10.25 15 10.5 14.7812 10.5 14.5ZM6.71875 9.625C6.875 9.625 7 9.71875 7.0625 9.84375L9.375 13.3438C9.46875 13.4688 9.46875 13.6562 9.40625 13.7812C9.34375 13.9375 9.1875 14 9.03125 14H2.90625C2.75 14 2.625 13.9375 2.53125 13.7812C2.46875 13.6562 2.46875 13.4688 2.5625 13.3438L4.03125 11.1562C4.09375 11.0312 4.25 10.9375 4.375 10.9375C4.53125 10.9375 4.65625 11.0312 4.75 11.1562L5.125 11.6875L6.34375 9.84375C6.4375 9.71875 6.5625 9.625 6.71875 9.625ZM4 9.5C3.4375 9.5 3 9.0625 3 8.5C3 7.96875 3.4375 7.5 4 7.5C4.53125 7.5 5 7.96875 5 8.5C5 9.0625 4.53125 9.5 4 9.5Z" fill="black"/>
</svg>
