<svg width="65" height="64" viewBox="0 0 65 64" fill="none" xmlns="http://www.w3.org/2000/svg">
<path d="M60.125 0.125C62.375 0.125 64.5 1.625 64.5 3.875V41.625C64.5 43.125 63.5 44.5 62 45.125C56.625 47.25 52.25 48 48.5 48C39.5 48 33.375 44.125 24.5 44.125C20 44.125 14.875 45.125 8.5 48V62C8.5 63.125 7.5 64 6.5 64H2.375C1.375 64 0.375 63.125 0.375 62L0.5 4C0.5 1.875 2.25 0 4.5 0C6.625 0 8.5 1.875 8.5 4V4.125C15.625 1.125 20.875 0.125 25 0.125C33.375 0.125 37.5 4.125 44.75 4.125C48.25 4.125 52.25 3.25 57.75 0.625C58.5 0.25 59.375 0.125 60.125 0.125ZM56.5 17.75V9.875C52.875 11.125 49.625 11.875 46.5 12V20.625C45.875 20.625 45.25 20.75 44.75 20.75C41.625 20.75 39 20 36.5 19.125V10.875C35.25 10.5 34.125 10.125 33.125 9.75C30.75 9 28.75 8.375 26.5 8.25V16.75C26 16.75 25.5 16.75 25 16.75C22.625 16.75 19.75 17.125 16.5 18V9.75C14.875 10.125 13.25 10.75 11.5 11.5L8.5 12.75V20.75C11.5 19.5 14 18.625 16.5 18V28.25C14.875 28.75 13.25 29.375 11.5 30.125L8.5 31.375V39.375C11.125 38.25 13.875 37.5 16.5 36.875V28.25C19.625 27.25 22.5 26.75 25 26.75C25.5 26.75 26 26.75 26.5 26.75V36.25C30.125 36.375 33.5 37 36.5 37.75V29.5C38.875 30.125 41.5 30.75 44.75 30.75C45.375 30.75 45.875 30.625 46.5 30.625V40C47.125 40 47.75 40 48.375 40C51 40 53.625 39.625 56.5 38.625V28.5C52.875 29.75 49.625 30.5 46.5 30.625V20.625C49.25 20.375 52.5 19.5 56.5 17.75ZM26.5 16.75C30.375 17 33.5 18.125 36.5 19.125V29.5C35.25 29.125 34.125 28.75 33.125 28.375C30.75 27.625 28.75 27 26.5 26.75V16.75Z" fill="#939393"/>
</svg>
