<svg width="17" height="17" viewBox="0 0 17 17" fill="none" xmlns="http://www.w3.org/2000/svg">
<path d="M5.25 0.5H5.3125C6.3125 0.5 7.21875 1.03125 7.71875 1.90625L8.5 3.1875L9.25 1.90625C9.75 1.03125 10.6562 0.5 11.6562 0.5H11.75C13.25 0.5 14.5 1.75 14.5 3.25C14.5 3.71875 14.375 4.125 14.1875 4.5H15.5C16.0312 4.5 16.5 4.96875 16.5 5.5V7.5C16.5 8.0625 16.0312 8.5 15.5 8.5H1.5C0.9375 8.5 0.5 8.0625 0.5 7.5V5.5C0.5 4.96875 0.9375 4.5 1.5 4.5H2.78125C2.59375 4.125 2.5 3.71875 2.5 3.25C2.5 1.75 3.71875 0.5 5.25 0.5ZM6.4375 2.65625C6.1875 2.25 5.78125 2 5.3125 2H5.25C4.53125 2 4 2.5625 4 3.25C4 3.96875 4.53125 4.5 5.25 4.5H7.53125L6.4375 2.65625ZM11.75 2H11.6562C11.1875 2 10.7812 2.25 10.5312 2.65625L9.4375 4.5H11.75C12.4375 4.5 13 3.96875 13 3.25C13 2.5625 12.4375 2 11.75 2ZM1.5 9.5H7.5V16.5H3C2.15625 16.5 1.5 15.8438 1.5 15V9.5ZM9.5 16.5V9.5H15.5V15C15.5 15.8438 14.8125 16.5 14 16.5H9.5Z" fill="#13A3DD"/>
</svg>
