<svg width="12" height="13" viewBox="0 0 12 13" fill="none" xmlns="http://www.w3.org/2000/svg">
<path d="M8.25 6.5C8.25 7.03906 8.20312 7.53125 8.15625 8H3.82031C3.77344 7.53125 3.72656 7.03906 3.72656 6.5C3.72656 5.98438 3.77344 5.49219 3.82031 5H8.15625C8.20312 5.49219 8.25 5.98438 8.25 6.5ZM11.7891 5C11.9297 5.49219 12 5.98438 12 6.5C12 7.03906 11.9297 7.53125 11.7891 8H8.90625C8.95312 7.53125 9 7.01562 9 6.5C9 5.98438 8.95312 5.49219 8.90625 5H11.7891ZM11.5547 4.25H8.8125C8.57812 2.77344 8.10938 1.50781 7.52344 0.710938C9.35156 1.20312 10.8516 2.51562 11.5547 4.25ZM8.0625 4.25H3.91406C4.05469 3.40625 4.28906 2.65625 4.54688 2.04688C4.80469 1.48438 5.0625 1.08594 5.34375 0.828125C5.60156 0.59375 5.8125 0.5 6 0.5C6.16406 0.5 6.375 0.59375 6.63281 0.828125C6.91406 1.08594 7.17188 1.48438 7.42969 2.04688C7.6875 2.65625 7.92188 3.40625 8.0625 4.25ZM0.421875 4.25C1.125 2.51562 2.625 1.20312 4.45312 0.710938C3.86719 1.50781 3.39844 2.77344 3.16406 4.25H0.421875ZM3.07031 5C3.02344 5.49219 2.97656 5.98438 2.97656 6.5C2.97656 7.01562 3.02344 7.53125 3.07031 8H0.1875C0.046875 7.53125 0 7.03906 0 6.5C0 5.98438 0.046875 5.49219 0.1875 5H3.07031ZM4.54688 10.9766C4.28906 10.3672 4.05469 9.61719 3.91406 8.75H8.0625C7.92188 9.61719 7.6875 10.3672 7.42969 10.9766C7.17188 11.5391 6.91406 11.9375 6.63281 12.1953C6.375 12.4297 6.16406 12.5 5.97656 12.5C5.8125 12.5 5.60156 12.4297 5.34375 12.1953C5.0625 11.9375 4.80469 11.5391 4.54688 10.9766ZM4.45312 12.3125C2.625 11.8203 1.125 10.5078 0.421875 8.75H3.16406C3.39844 10.25 3.86719 11.5156 4.45312 12.3125ZM7.52344 12.3125C8.10938 11.5156 8.57812 10.25 8.8125 8.75H11.5547C10.8516 10.5078 9.35156 11.8203 7.52344 12.3125Z" fill="black"/>
</svg>
