<svg width="7" height="18" viewBox="0 0 7 18" fill="none" xmlns="http://www.w3.org/2000/svg">
<path d="M5.625 15C6.22266 15 6.75 15.4922 6.75 16.125C6.75 16.7227 6.22266 17.25 5.625 17.25H1.125C0.492188 17.25 0 16.7227 0 16.125C0 15.4922 0.492188 15 1.125 15H2.25V8.25H1.125C0.492188 8.25 0 7.75781 0 7.125C0 6.52734 0.492188 6 1.125 6H3.375C3.97266 6 4.5 6.52734 4.5 7.125V15H5.625ZM3.375 3.75C2.42578 3.75 1.6875 3.01172 1.6875 2.09766C1.6875 1.14844 2.42578 0.410156 3.375 0.410156C4.28906 0.410156 5.0625 1.14844 5.0625 2.0625C5.0625 3.01172 4.28906 3.75 3.375 3.75Z" fill="#007AFF"/>
</svg>
