<svg width="21" height="17" viewBox="0 0 21 17" fill="none" xmlns="http://www.w3.org/2000/svg">
<path d="M18.125 0.375C19.3555 0.375 20.375 1.39453 20.375 2.625V13.875C20.375 15.1406 19.3555 16.125 18.125 16.125H2.375C1.10938 16.125 0.125 15.1406 0.125 13.875V2.625C0.125 1.39453 1.10938 0.375 2.375 0.375H18.125ZM6.3125 3.75C5.04688 3.75 4.0625 4.76953 4.0625 6C4.0625 7.26562 5.04688 8.25 6.3125 8.25C7.54297 8.25 8.5625 7.26562 8.5625 6C8.5625 4.76953 7.54297 3.75 6.3125 3.75ZM9.6875 12.75C9.96875 12.75 10.25 12.5039 10.25 12.1875C10.25 10.6406 8.98438 9.375 7.4375 9.375H5.1875C3.60547 9.375 2.375 10.6406 2.375 12.1875C2.375 12.5039 2.62109 12.75 2.9375 12.75H9.6875ZM17.5625 10.5C17.8438 10.5 18.125 10.2539 18.125 9.9375C18.125 9.65625 17.8438 9.375 17.5625 9.375H13.0625C12.7461 9.375 12.5 9.65625 12.5 9.9375C12.5 10.2539 12.7461 10.5 13.0625 10.5H17.5625ZM17.5625 8.25C17.8438 8.25 18.125 8.00391 18.125 7.6875C18.125 7.40625 17.8438 7.125 17.5625 7.125H13.0625C12.7461 7.125 12.5 7.40625 12.5 7.6875C12.5 8.00391 12.7461 8.25 13.0625 8.25H17.5625ZM17.5625 6C17.8438 6 18.125 5.75391 18.125 5.4375C18.125 5.15625 17.8438 4.875 17.5625 4.875H13.0625C12.7461 4.875 12.5 5.15625 12.5 5.4375C12.5 5.75391 12.7461 6 13.0625 6H17.5625Z" fill="black"/>
</svg>
