<svg width="18" height="21" viewBox="0 0 18 21" fill="none" xmlns="http://www.w3.org/2000/svg">
<path d="M6.75 16.125C6.75 16.4766 6.4375 16.75 6.125 16.75C5.77344 16.75 5.5 16.4766 5.5 16.125V8C5.5 7.6875 5.77344 7.375 6.125 7.375C6.4375 7.375 6.75 7.6875 6.75 8V16.125ZM9.875 16.125C9.875 16.4766 9.5625 16.75 9.25 16.75C8.89844 16.75 8.625 16.4766 8.625 16.125V8C8.625 7.6875 8.89844 7.375 9.25 7.375C9.5625 7.375 9.875 7.6875 9.875 8V16.125ZM13 16.125C13 16.4766 12.6875 16.75 12.375 16.75C12.0234 16.75 11.75 16.4766 11.75 16.125V8C11.75 7.6875 12.0234 7.375 12.375 7.375C12.6875 7.375 13 7.6875 13 8V16.125ZM12.8828 1.47656L14.3281 3.625H17.0625C17.5703 3.625 18 4.05469 18 4.5625C18 5.10938 17.5703 5.5 17.0625 5.5H16.75V17.375C16.75 19.1328 15.3438 20.5 13.625 20.5H4.875C3.11719 20.5 1.75 19.1328 1.75 17.375V5.5H1.4375C0.890625 5.5 0.5 5.10938 0.5 4.5625C0.5 4.05469 0.890625 3.625 1.4375 3.625H4.13281L5.57812 1.47656C5.96875 0.890625 6.67188 0.5 7.41406 0.5H11.0469C11.7891 0.5 12.4922 0.890625 12.8828 1.47656ZM6.39844 3.625H12.0625L11.3203 2.53125C11.2812 2.45312 11.1641 2.375 11.0469 2.375H7.41406C7.29688 2.375 7.17969 2.45312 7.14062 2.53125L6.39844 3.625ZM3.625 17.375C3.625 18.0781 4.17188 18.625 4.875 18.625H13.625C14.2891 18.625 14.875 18.0781 14.875 17.375V5.5H3.625V17.375Z" fill="#FF3B30"/>
</svg>
