<svg width="21" height="19" viewBox="0 0 21 19" fill="none" xmlns="http://www.w3.org/2000/svg">
<path d="M6.9375 4.1875C7.95312 4.1875 8.8125 5.04688 8.8125 6.0625C8.8125 7.11719 7.95312 7.9375 6.9375 7.9375C5.88281 7.9375 5.0625 7.11719 5.0625 6.0625C5.0625 5.04688 5.88281 4.1875 6.9375 4.1875ZM18.4609 0.75C19.8672 0.75 20.9609 1.88281 20.9609 3.25V15.75C20.9609 17.1562 19.8281 18.25 18.4609 18.25H3.46094C2.09375 18.25 0.960938 17.1562 0.960938 15.75V3.25C0.960938 1.88281 2.09375 0.75 3.46094 0.75H18.4609ZM19.0859 15.5156V3.25C19.0859 2.9375 18.8125 2.625 18.4609 2.625H3.46094C3.14844 2.625 2.83594 2.9375 2.83594 3.25L2.875 15.75L5.80469 12.0781C5.96094 11.9219 6.15625 11.8047 6.39062 11.8047C6.625 11.8047 6.82031 11.9219 6.97656 12.0781L8.42188 13.875L12.5625 8.25C12.7188 8.05469 12.9141 7.9375 13.1875 7.9375C13.4219 7.9375 13.6172 8.05469 13.7344 8.25L19.0859 15.5156Z" fill="black"/>
</svg>
