<svg width="22" height="19" viewBox="0 0 22 19" fill="none" xmlns="http://www.w3.org/2000/svg">
<path d="M21.0898 9.25C21.0898 9.88281 20.5625 10.375 19.9648 10.375H18.8398L18.875 16C18.875 16.1055 18.875 16.2109 18.875 16.2812V16.8438C18.875 17.6523 18.2422 18.25 17.4688 18.25H16.9062C16.8359 18.25 16.8008 18.25 16.7656 18.25C16.7305 18.25 16.6602 18.25 16.625 18.25H14.6562C13.8477 18.25 13.25 17.6523 13.25 16.8438V13.75C13.25 13.1523 12.7227 12.625 12.125 12.625H9.875C9.24219 12.625 8.75 13.1523 8.75 13.75V16.8438C8.75 17.6523 8.11719 18.25 7.34375 18.25H5.375C5.30469 18.25 5.26953 18.25 5.19922 18.25C5.16406 18.25 5.12891 18.25 5.09375 18.25H4.53125C3.72266 18.25 3.125 17.6523 3.125 16.8438V12.9062C3.125 12.9062 3.125 12.8711 3.125 12.8359V10.375H2C1.36719 10.375 0.875 9.88281 0.875 9.25C0.875 8.93359 0.980469 8.65234 1.22656 8.40625L10.2266 0.566406C10.4727 0.320312 10.7539 0.25 11 0.25C11.2461 0.25 11.5273 0.355469 11.7383 0.53125L20.7031 8.40625C20.9844 8.65234 21.125 8.93359 21.0898 9.25Z" fill="black"/>
</svg>
