<svg width="22" height="19" viewBox="0 0 22 19" fill="none" xmlns="http://www.w3.org/2000/svg">
<path d="M18.4092 17.2194C18.6904 17.4918 19.1387 17.483 19.4023 17.2194C19.6748 16.9381 19.6748 16.4987 19.4023 16.235L3.58203 0.414686C3.30957 0.142225 2.86133 0.133436 2.58887 0.414686C2.31641 0.678358 2.3252 1.13539 2.58887 1.39906L18.4092 17.2194ZM10.7539 6.05726C10.8594 6.03969 10.9824 6.0309 11.0967 6.0309C14.3398 6.09242 17.0732 7.34047 19.2354 9.55531C19.4199 9.73988 19.7012 9.73109 19.8857 9.53773L21.1162 8.29848C21.3008 8.12269 21.292 7.89418 21.1514 7.72719C18.998 5.1432 15.0869 3.24476 11 3.24476C10.1035 3.24476 9.20703 3.33265 8.24024 3.5348L10.7539 6.05726ZM4.48731 4.87074C3.02832 5.6266 1.77149 6.61097 0.839845 7.72719C0.69922 7.89418 0.69922 8.12269 0.875001 8.29848L2.10547 9.53773C2.29883 9.73109 2.58887 9.73109 2.77344 9.52894C3.87207 8.36879 5.12012 7.48988 6.53516 6.9098L4.48731 4.87074ZM17.0732 12.3678L17.5918 11.8493C17.7676 11.6823 17.7764 11.4713 17.627 11.2955C16.7217 10.1793 15.1748 9.22133 13.5049 8.79945L17.0732 12.3678ZM8.44238 8.80824C6.74609 9.27406 5.30469 10.1793 4.36426 11.2955C4.21484 11.4713 4.23242 11.6911 4.39941 11.8493L5.7793 13.2028C5.99024 13.4049 6.27149 13.3873 6.47363 13.1676C7.51953 12.025 9.1543 11.2428 10.833 11.1989L8.44238 8.80824ZM11 13.5807C9.74317 13.5807 8.60938 14.2399 8.00293 15.0661C7.89746 15.2243 7.94141 15.4176 8.09961 15.567L10.2529 17.6412C10.6045 17.984 10.7891 18.0807 11 18.0807C11.2197 18.0807 11.4043 17.9752 11.7559 17.6412L13.9092 15.567C14.0674 15.4176 14.1025 15.1715 13.9619 14.9957C13.3467 14.2135 12.2393 13.5807 11 13.5807Z" fill="#1C1C1E"/>
</svg>
