<svg width="19" height="18" viewBox="0 0 19 18" fill="none" xmlns="http://www.w3.org/2000/svg">
<path d="M0.5 5.3125C0.5 4.43359 1.27344 3.625 2.1875 3.625H3.875V17.125H2.1875C1.27344 17.125 0.5 16.3516 0.5 15.4375V5.3125ZM12.3125 0.25C13.1914 0.25 14 1.05859 14 1.9375V17.125H5V1.9375C5 1.05859 5.77344 0.25 6.6875 0.25H12.3125ZM12.3125 3.625V1.9375H6.6875V3.625H12.3125ZM16.8125 3.625C17.6914 3.625 18.5 4.43359 18.5 5.3125V15.4375C18.5 16.3516 17.6914 17.125 16.8125 17.125H15.125V3.625H16.8125Z" fill="black"/>
</svg>
