<svg width="19" height="19" viewBox="0 0 19 19" fill="none" xmlns="http://www.w3.org/2000/svg">
<path d="M12 2.5C12 3.76562 10.9805 4.75 9.75 4.75C8.48438 4.75 7.5 3.76562 7.5 2.5C7.5 1.26953 8.48438 0.25 9.75 0.25C10.9805 0.25 12 1.26953 12 2.5ZM10.875 5.875C12.1055 5.875 13.125 6.89453 13.125 8.125V9.8125C13.125 10.4453 12.5977 10.9375 12 10.9375H11.9297L11.543 14.4531C11.4727 15.0156 10.9805 15.4375 10.418 15.4375H9.04688C8.48438 15.4375 7.99219 15.0156 7.92188 14.4531L7.53516 10.9375H7.5C6.86719 10.9375 6.375 10.4453 6.375 9.8125V8.125C6.375 6.89453 7.35938 5.875 8.625 5.875H10.875ZM2.96484 14.8398C2.85938 14.9102 2.75391 14.9453 2.68359 15.0156C2.54297 15.0859 2.54297 15.2617 2.68359 15.332C3 15.543 3.49219 15.7539 4.19531 15.9648C5.56641 16.3164 7.53516 16.5625 9.75 16.5625C11.9297 16.5625 13.8984 16.3164 15.2695 15.9648C15.9727 15.7539 16.4648 15.543 16.7812 15.332C16.9219 15.2617 16.9219 15.0859 16.7812 15.0156C16.7109 14.9453 16.6055 14.9102 16.5 14.8398C15.9727 14.5586 15.1289 14.3125 14.0742 14.1367C13.6172 14.0312 13.3359 13.6094 13.4062 13.1523C13.4766 12.6953 13.9336 12.3789 14.3906 12.4492C15.5156 12.6602 16.5352 12.9766 17.2734 13.3281C17.625 13.5391 17.9766 13.75 18.2578 14.0312C18.5039 14.3125 18.75 14.6992 18.75 15.1562C18.75 15.9297 18.1875 16.457 17.6953 16.7383C17.2031 17.0898 16.5 17.3711 15.7266 17.582C14.1445 18.0039 12.0352 18.25 9.75 18.25C7.42969 18.25 5.32031 18.0039 3.73828 17.582C2.96484 17.3711 2.26172 17.0898 1.76953 16.7383C1.27734 16.457 0.75 15.9297 0.75 15.1562C0.75 14.6992 0.960938 14.3125 1.20703 14.0312C1.48828 13.75 1.83984 13.5391 2.19141 13.3281C2.92969 12.9766 3.94922 12.6602 5.07422 12.4492C5.53125 12.3789 5.98828 12.6953 6.05859 13.1523C6.12891 13.6094 5.84766 14.0312 5.39062 14.1367C4.33594 14.3125 3.49219 14.5586 2.96484 14.8398Z" fill="black"/>
</svg>
