<svg width="15" height="15" viewBox="0 0 15 15" fill="none" xmlns="http://www.w3.org/2000/svg">
<path d="M13.5938 0.84375C14.0918 0.84375 14.5312 1.2832 14.5312 1.78125V6C14.5312 6.52734 14.0918 6.9375 13.5938 6.9375H9.84375C9.31641 6.9375 8.90625 6.52734 8.90625 6C8.90625 5.50195 9.31641 5.0625 9.84375 5.0625H11.1328C10.3125 3.91992 8.96484 3.1875 7.5 3.1875C5.53711 3.1875 3.80859 4.44727 3.22266 6.29297C3.07617 6.79102 2.54883 7.05469 2.05078 6.9082C1.55273 6.76172 1.28906 6.23438 1.43555 5.73633C2.28516 3.09961 4.7168 1.3125 7.5 1.3125C9.58008 1.3125 11.4844 2.33789 12.6562 3.97852V1.78125C12.6562 1.2832 13.0664 0.84375 13.5938 0.84375ZM12.9199 8.87109C13.418 9.01758 13.6816 9.54492 13.5059 10.043C12.6562 12.6797 10.2246 14.4375 7.4707 14.4375C5.39062 14.4375 3.48633 13.4414 2.34375 11.8008V13.9688C2.34375 14.4961 1.9043 14.9062 1.40625 14.9062C0.878906 14.9062 0.46875 14.4961 0.46875 13.9688V9.75C0.46875 9.25195 0.878906 8.8125 1.40625 8.8125H5.15625C5.6543 8.8125 6.09375 9.25195 6.09375 9.75C6.09375 10.2773 5.6543 10.6875 5.15625 10.6875H3.83789C4.6582 11.8594 6.00586 12.5625 7.5 12.5625C9.43359 12.5625 11.1621 11.332 11.748 9.48633C11.8945 8.98828 12.4219 8.72461 12.9199 8.87109Z" fill="white"/>
</svg>
