<svg width="16" height="17" viewBox="0 0 16 17" fill="none" xmlns="http://www.w3.org/2000/svg">
<path d="M14.75 0.375C15.3477 0.375 15.875 0.902344 15.875 1.53516V15C15.875 15.6328 15.3477 16.125 14.75 16.125H1.21484C0.617188 16.125 0.125 15.6328 0.125 15V1.53516C0.125 0.902344 0.617188 0.375 1.21484 0.375H14.75ZM4.87109 13.875V6.38672H2.55078V13.875H4.87109ZM3.71094 5.33203C4.44922 5.33203 5.04688 4.73438 5.04688 3.99609C5.04688 3.25781 4.44922 2.625 3.71094 2.625C2.9375 2.625 2.33984 3.25781 2.33984 3.99609C2.33984 4.73438 2.9375 5.33203 3.71094 5.33203ZM13.625 13.875V9.76172C13.625 7.75781 13.168 6.17578 10.8125 6.17578C9.6875 6.17578 8.91406 6.80859 8.59766 7.40625H8.5625V6.38672H6.34766V13.875H8.66797V10.1836C8.66797 9.19922 8.84375 8.25 10.0742 8.25C11.2695 8.25 11.2695 9.375 11.2695 10.2188V13.875H13.625Z" fill="#007AFF"/>
</svg>
