<svg width="18" height="14" viewBox="0 0 18 14" fill="none" xmlns="http://www.w3.org/2000/svg">
<path d="M16.3125 0C17.2266 0 18 0.773438 18 1.6875C18 2.25 17.7188 2.74219 17.2969 3.05859L9.66797 8.78906C9.24609 9.10547 8.71875 9.10547 8.29688 8.78906L0.667969 3.05859C0.246094 2.74219 0 2.25 0 1.6875C0 0.773438 0.738281 0 1.6875 0H16.3125ZM7.62891 9.70312C8.4375 10.3008 9.52734 10.3008 10.3359 9.70312L18 3.9375V11.25C18 12.5156 16.9805 13.5 15.75 13.5H2.25C0.984375 13.5 0 12.5156 0 11.25V3.9375L7.62891 9.70312Z" fill="#007AFF"/>
</svg>
