<svg width="21" height="19" viewBox="0 0 21 19" fill="none" xmlns="http://www.w3.org/2000/svg">
<path d="M5.96484 16.5352C6.31641 16.5352 6.66797 16.4297 6.98438 16.2188L11.625 12.7383V17.625C11.625 18.2578 11.0977 18.75 10.5 18.75H1.5C0.867188 18.75 0.375 18.2578 0.375 17.625V12.7383L5.01562 16.2188C5.29688 16.4297 5.64844 16.5352 5.96484 16.5352ZM6 7.5V8.625H2.625V1.875C2.625 1.27734 3.11719 0.75 3.75 0.75H15C15.5977 0.75 16.125 1.27734 16.125 1.875V5.25H8.25C6.98438 5.25 6 6.26953 6 7.5ZM10.5 9.75C11.0977 9.75 11.625 10.2773 11.625 10.875V11.332L6.31641 15.3047C6.10547 15.4453 5.85938 15.4453 5.68359 15.3047L0.375 11.332V10.875C0.375 10.2773 0.867188 9.75 1.5 9.75H10.5ZM19.5 6.375C20.0977 6.375 20.625 6.90234 20.625 7.5V14.25C20.625 14.8828 20.0977 15.375 19.5 15.375H12.75L12.7148 10.6641C12.6094 9.53906 11.6602 8.625 10.5 8.625H7.125V7.5C7.125 6.90234 7.61719 6.375 8.25 6.375H19.5ZM18.375 10.875V8.625H16.125V10.875H18.375Z" fill="#007AFF"/>
</svg>
