<svg width="67" height="68" viewBox="0 0 67 68" fill="none" xmlns="http://www.w3.org/2000/svg">
<path d="M66.375 3.625C64.875 8.5 62.125 17.625 58.75 27.125C59.625 27.375 60.375 27.625 61 27.875C61.625 28 62.125 28.375 62.25 29C62.5 29.5 62.5 30.125 62.25 30.75C59.5 36 51.875 49.75 44.375 57.5C44.25 57.625 44.125 57.75 44 57.875C34.5 67.5 19.125 67.5 9.625 58C0.125 48.375 0.125 33 9.625 23.5C9.75 23.375 9.875 23.25 10 23.125C17.75 15.625 31.5 8 36.75 5.25C37.25 5 37.875 5 38.375 5.25C39 5.5 39.375 5.875 39.5 6.5C39.75 7.125 40 7.875 40.25 8.75C49.75 5.375 58.875 2.625 63.75 1.125C64.375 0.875 65.25 1.125 65.75 1.625C66.375 2.125 66.5 3 66.375 3.625ZM42.375 41C42.375 32.125 35.125 25 26.375 25C17.5 25 10.375 32.125 10.375 41C10.375 49.75 17.5 57 26.375 57C35.25 57 42.375 49.875 42.375 41ZM26.375 37C26.375 39.125 24.5 41 22.375 41C20.125 41 18.375 39.125 18.375 37C18.375 34.75 20.125 33 22.375 33C23.375 33 24.375 33.375 25.125 34.125C25.875 34.875 26.375 36 26.375 37ZM30.375 47C30.375 48 29.5 49 28.375 49C27.375 49 26.375 48 26.375 47C26.375 45.875 27.375 45 28.375 45C29.5 45 30.375 46 30.375 47Z" fill="#939393"/>
</svg>
