<svg width="19" height="18" viewBox="0 0 19 18" fill="none" xmlns="http://www.w3.org/2000/svg">
<path d="M9.25 1.375C14.207 1.375 18.2148 4.67969 18.2148 8.6875C18.2148 12.6953 14.2422 16 9.25 16C7.91406 16 6.64844 15.7188 5.48828 15.2969C4.57422 16 2.88672 17.125 0.53125 17.125C0.425781 17.125 0.320312 17.0547 0.285156 16.9492C0.25 16.8438 0.25 16.7031 0.355469 16.6328C0.355469 16.6328 1.83203 15.0508 2.25391 13.2578C1.02344 12.0273 0.25 10.4102 0.25 8.6875C0.25 4.64453 4.25781 1.375 9.25 1.375ZM4.71484 9.8125C5.34766 9.8125 5.83984 9.32031 5.83984 8.6875C5.83984 8.08984 5.3125 7.5625 4.71484 7.5625C4.08203 7.5625 3.58984 8.125 3.58984 8.6875C3.58984 9.28516 4.08203 9.8125 4.71484 9.8125ZM9.25 9.8125C9.84766 9.8125 10.3398 9.32031 10.3398 8.6875C10.3398 8.08984 9.8125 7.5625 9.25 7.5625C8.65234 7.5625 8.125 8.125 8.125 8.6875C8.125 9.28516 8.61719 9.8125 9.25 9.8125ZM13.7148 9.8125C14.3477 9.8125 14.8398 9.32031 14.8398 8.6875C14.8398 8.08984 14.3125 7.5625 13.7148 7.5625C13.082 7.5625 12.5898 8.125 12.5898 8.6875C12.5898 9.28516 13.082 9.8125 13.7148 9.8125Z" fill="black"/>
</svg>
