<svg width="20" height="20" viewBox="0 0 20 20" fill="none" xmlns="http://www.w3.org/2000/svg">
<path d="M9.25 3.375C14.207 3.375 18.2148 6.67969 18.2148 10.6875C18.2148 14.6953 14.2422 18 9.25 18C7.91406 18 6.64844 17.7188 5.48828 17.2969C4.57422 18 2.88672 19.125 0.53125 19.125C0.425781 19.125 0.320312 19.0547 0.285156 18.9492C0.25 18.8438 0.25 18.7031 0.355469 18.6328C0.355469 18.6328 1.83203 17.0508 2.25391 15.2578C1.02344 14.0273 0.25 12.4102 0.25 10.6875C0.25 6.64453 4.25781 3.375 9.25 3.375ZM4.71484 11.8125C5.34766 11.8125 5.83984 11.3203 5.83984 10.6875C5.83984 10.0898 5.3125 9.5625 4.71484 9.5625C4.08203 9.5625 3.58984 10.125 3.58984 10.6875C3.58984 11.2852 4.08203 11.8125 4.71484 11.8125ZM9.25 11.8125C9.84766 11.8125 10.3398 11.3203 10.3398 10.6875C10.3398 10.0898 9.8125 9.5625 9.25 9.5625C8.65234 9.5625 8.125 10.125 8.125 10.6875C8.125 11.2852 8.61719 11.8125 9.25 11.8125ZM13.7148 11.8125C14.3477 11.8125 14.8398 11.3203 14.8398 10.6875C14.8398 10.0898 14.3125 9.5625 13.7148 9.5625C13.082 9.5625 12.5898 10.125 12.5898 10.6875C12.5898 11.2852 13.082 11.8125 13.7148 11.8125Z" fill="black"/>
<circle cx="15.5" cy="4.5" r="4.5" fill="#FF3B30"/>
</svg>
