<svg width="14" height="4" viewBox="0 0 14 4" fill="none" xmlns="http://www.w3.org/2000/svg">
<path d="M3.75 2C3.75 2.96875 2.9375 3.75 2 3.75C1.03125 3.75 0.25 2.96875 0.25 2C0.25 1.0625 1.03125 0.25 2 0.25C2.9375 0.25 3.75 1.0625 3.75 2ZM8.75 2C8.75 2.96875 7.9375 3.75 7 3.75C6.03125 3.75 5.25 2.96875 5.25 2C5.25 1.0625 6.03125 0.25 7 0.25C7.9375 0.25 8.75 1.0625 8.75 2ZM10.25 2C10.25 1.0625 11.0312 0.25 12 0.25C12.9375 0.25 13.75 1.0625 13.75 2C13.75 2.96875 12.9375 3.75 12 3.75C11.0312 3.75 10.25 2.96875 10.25 2Z" fill="black"/>
</svg>
