<svg width="12" height="17" viewBox="0 0 12 17" fill="none" xmlns="http://www.w3.org/2000/svg">
<path d="M10 15C10.25 15 10.5 14.7812 10.5 14.5V13.5H12V14.5C12 15.625 11.0938 16.5 10 16.5H2C0.875 16.5 0 15.625 0 14.5V13.5H1.5V14.5C1.5 14.7812 1.71875 15 2 15H10ZM8 5.5C7.4375 5.5 7 5.0625 7 4.5V2H2C1.71875 2 1.5 2.25 1.5 2.5V6.5H0V2.5C0 1.40625 0.875 0.5 2 0.5H7.15625C7.6875 0.5 8.1875 0.71875 8.5625 1.09375L11.4062 3.9375C11.7812 4.3125 12 4.8125 12 5.34375V6.5H10.5V5.5H8ZM2.75 7.5C3.6875 7.5 4.5 8.3125 4.5 9.25C4.5 10.2188 3.6875 11 2.75 11H2.5V12C2.5 12.2812 2.25 12.5 2 12.5C1.71875 12.5 1.5 12.2812 1.5 12V8C1.5 7.75 1.71875 7.5 2 7.5H2.75ZM3.5 9.25C3.5 8.84375 3.15625 8.5 2.75 8.5H2.5V10H2.75C3.15625 10 3.5 9.6875 3.5 9.25ZM5 8C5 7.75 5.21875 7.5 5.5 7.5H6.25C7.0625 7.5 7.75 8.1875 7.75 9V11C7.75 11.8438 7.0625 12.5 6.25 12.5H5.5C5.21875 12.5 5 12.2812 5 12V8ZM6 11.5H6.25C6.5 11.5 6.75 11.2812 6.75 11V9C6.75 8.75 6.5 8.5 6.25 8.5H6V11.5ZM10.5 7.5C10.75 7.5 11 7.75 11 8C11 8.28125 10.75 8.5 10.5 8.5H9.5V9.5H10.5C10.75 9.5 11 9.75 11 10C11 10.2812 10.75 10.5 10.5 10.5H9.5V12C9.5 12.2812 9.25 12.5 9 12.5C8.71875 12.5 8.5 12.2812 8.5 12V8C8.5 7.75 8.71875 7.5 9 7.5H10.5Z" fill="black"/>
</svg>
