<svg width="20" height="20" viewBox="0 0 22 21" fill="none" xmlns="http://www.w3.org/2000/svg">
<path d="M17.4453 9.13281L8.34375 18.2344L7.01562 16.9062L7.17188 16.75H5.375C5.02344 16.75 4.75 16.4766 4.75 16.125V14.3281L4.59375 14.4844C4.39844 14.6797 4.28125 14.875 4.20312 15.1484L3.30469 18.1953L6.35156 17.2969C6.58594 17.2188 6.82031 17.1016 7.01562 16.9062L8.34375 18.2344C7.95312 18.625 7.44531 18.9375 6.89844 19.0938L2.17188 20.4609C1.85938 20.5781 1.50781 20.5 1.27344 20.2266C1 19.9922 0.921875 19.6406 1 19.3281L2.40625 14.6016C2.5625 14.0547 2.875 13.5469 3.26562 13.1562L12.3672 4.05469L17.4453 9.13281ZM20.2188 2.80469C21.1953 3.78125 21.1953 5.38281 20.2188 6.35938L18.3438 8.23438L13.2656 3.15625L15.1406 1.28125C16.1172 0.304688 17.7188 0.304688 18.6953 1.28125L20.2188 2.80469Z" fill="white"/>
</svg>
