<svg width="20" height="19" viewBox="0 0 20 19" fill="none" xmlns="http://www.w3.org/2000/svg">
<path d="M11.9844 7.14844C12.793 7.81641 13.25 8.76562 13.25 9.75C13.25 10.7695 12.793 11.7188 11.9844 12.3867C11.8438 12.4922 11.6328 12.5625 11.457 12.5625C11.2109 12.5625 10.9648 12.457 10.7891 12.2461C10.5078 11.8945 10.543 11.3672 10.9297 11.0508C11.3164 10.7344 11.5625 10.2773 11.5625 9.75C11.5625 9.25781 11.3164 8.80078 10.9297 8.48438C10.543 8.16797 10.5078 7.64062 10.7891 7.28906C11.1055 6.9375 11.6328 6.86719 11.9844 7.14844ZM14.1289 4.54688C15.7109 5.84766 16.625 7.71094 16.625 9.75C16.625 11.7891 15.7109 13.6875 14.1289 14.9531C13.9531 15.0586 13.7773 15.1289 13.5664 15.1289C13.3203 15.1289 13.1094 15.0234 12.9336 14.8125C12.6172 14.4609 12.6875 13.9336 13.0391 13.6523C14.2344 12.668 14.9023 11.2266 14.9023 9.75C14.9023 8.23828 14.2344 6.83203 13.0391 5.84766C12.6875 5.53125 12.6172 5.00391 12.9336 4.65234C13.2148 4.30078 13.7422 4.23047 14.1289 4.54688ZM16.2734 1.94531C18.6289 3.87891 20 6.65625 20 9.75C20 12.8086 18.6289 15.6562 16.2734 17.5547C16.0977 17.6953 15.9219 17.7656 15.7461 17.7656C15.5 17.7656 15.2539 17.6602 15.0781 17.4492C14.7969 17.0977 14.832 16.5703 15.1836 16.2539C17.1523 14.6367 18.3125 12.2461 18.3125 9.75C18.3125 7.21875 17.1523 4.86328 15.1836 3.24609C14.832 2.92969 14.7969 2.40234 15.0781 2.05078C15.3945 1.69922 15.9219 1.62891 16.2734 1.94531ZM7.30859 6.90234L5.44531 6.72656C4.74219 8.69531 4.74219 10.8398 5.44531 12.8086L7.30859 12.6328C7.66016 12.5977 8.04688 12.8086 8.1875 13.1602L9.34766 16.1133C9.52344 16.5 9.34766 16.957 9.03125 17.168L6.64062 18.6445C6.32422 18.8555 5.86719 18.7852 5.58594 18.5039C0.769531 13.6875 0.769531 5.84766 5.58594 1.03125C5.86719 0.75 6.32422 0.679688 6.64062 0.890625L9.03125 2.36719C9.34766 2.57812 9.52344 3.03516 9.34766 3.42188L8.1875 6.375C8.04688 6.72656 7.66016 6.9375 7.30859 6.90234Z" fill="#007AFF"/>
</svg>
