<svg width="32" height="32" viewBox="0 0 32 32" fill="none" xmlns="http://www.w3.org/2000/svg">
<circle cx="16" cy="16" r="15.5" stroke="#C4C4C4"/>
<path d="M22.5 16C22.5 16.5625 22.0312 17.0312 21.5 17.0312H17V21.5312C17 22.0625 16.5312 22.5 16 22.5C15.4375 22.5 15 22.0625 15 21.5312V17.0312H10.5C9.9375 17.0312 9.5 16.5625 9.5 16C9.5 15.4688 9.9375 15.0312 10.5 15.0312H15V10.5312C15 9.96875 15.4375 9.5 16 9.5C16.5312 9.5 17 9.96875 17 10.5312V15.0312H21.5C22.0312 15 22.5 15.4688 22.5 16Z" fill="black"/>
</svg>
