<svg width="10" height="14" viewBox="0 0 10 14" fill="none" xmlns="http://www.w3.org/2000/svg">
<path d="M6.375 0.03125C8.375 0.03125 10 1.625 10 3.625C10 5 9.21875 6.25 8 6.875L5.5 8.34375V9C5.5 9.5625 5.03125 10 4.5 10C3.9375 10 3.5 9.5625 3.5 9V7.75C3.5 7.40625 3.65625 7.09375 3.96875 6.90625L7.03125 5.125C7.65625 4.8125 8 4.25 8 3.625C8 2.75 7.25 2.03125 6.375 2.03125H3C2.4375 2.03125 2 2.46875 2 3.03125C2 3.53125 1.53125 4 1 4C0.4375 4 0 3.5625 0 3.03125C0 1.375 1.34375 0.03125 3 0.03125H6.375ZM4.5 11.5C5.1875 11.5 5.75 12.0938 5.75 12.75C5.75 13.4375 5.1875 14 4.5 14C3.78125 14 3.25 13.4688 3.25 12.75C3.25 12.0625 3.78125 11.5 4.5 11.5Z" fill="#007AFF"/>
</svg>
