<svg width="95" height="17" viewBox="0 0 95 17" fill="none" xmlns="http://www.w3.org/2000/svg">
<path d="M14.7812 1.5V6C14.7812 6.5625 14.3125 7 13.7812 7H9.28125C8.71875 7 8.28125 6.5625 8.28125 6C8.28125 5.46875 8.71875 5 9.28125 5H11.25C10.3125 3.78125 8.84375 3.03125 7.25 3.03125C4.5 3.03125 2.28125 5.25 2.28125 8C2.28125 10.7812 4.5 13 7.25 13C8.34375 13 9.375 12.6562 10.25 12C10.6875 11.6875 11.3125 11.7812 11.6562 12.2188C12 12.6562 11.9062 13.2812 11.4688 13.625C10.25 14.5312 8.78125 15 7.25 15C3.40625 15 0.28125 11.875 0.28125 8C0.28125 4.15625 3.40625 1.03125 7.25 1.03125C9.4375 1.03125 11.4375 2.03125 12.7812 3.71875V1.5C12.7812 0.96875 13.2188 0.5 13.7812 0.5C14.3125 0.5 14.7812 0.96875 14.7812 1.5ZM21.9 14V5.51562H23.5953V6.79688H23.7203C24.025 5.89844 24.8141 5.36719 25.9469 5.36719C26.2203 5.36719 26.5172 5.40625 26.6891 5.44531V7.00781C26.3844 6.94531 26.0953 6.90625 25.775 6.90625C24.4781 6.90625 23.5953 7.70312 23.5953 8.92969V14H21.9ZM31.8656 4.34375H30.5297L31.8969 1.65625H33.7094L31.8656 4.34375ZM31.35 14.1641C28.8656 14.1641 27.3656 12.4688 27.3656 9.78125V9.77344C27.3656 7.125 28.8969 5.35156 31.2641 5.35156C33.6312 5.35156 35.0844 7.0625 35.0844 9.60938V10.2031H29.0687C29.1 11.8281 29.9906 12.7734 31.3891 12.7734C32.475 12.7734 33.1234 12.2344 33.3266 11.7969L33.3578 11.7344L34.9906 11.7266L34.975 11.7969C34.6937 12.9141 33.5219 14.1641 31.35 14.1641ZM31.2719 6.74219C30.1156 6.74219 29.2406 7.53125 29.0922 8.99219H33.4047C33.2719 7.47656 32.4203 6.74219 31.2719 6.74219ZM40.3625 14.1641C37.8781 14.1641 36.3781 12.4688 36.3781 9.78125V9.77344C36.3781 7.125 37.9094 5.35156 40.2766 5.35156C42.6438 5.35156 44.0969 7.0625 44.0969 9.60938V10.2031H38.0813C38.1125 11.8281 39.0031 12.7734 40.4016 12.7734C41.4875 12.7734 42.1359 12.2344 42.3391 11.7969L42.3703 11.7344L44.0031 11.7266L43.9875 11.7969C43.7063 12.9141 42.5344 14.1641 40.3625 14.1641ZM40.2844 6.74219C39.1281 6.74219 38.2531 7.53125 38.1047 8.99219H42.4172C42.2844 7.47656 41.4328 6.74219 40.2844 6.74219ZM48.8984 14.1641C46.8516 14.1641 45.5547 13.2031 45.3906 11.7812V11.7734H47.0859L47.0938 11.7812C47.3047 12.4219 47.9219 12.8516 48.9297 12.8516C49.9766 12.8516 50.7031 12.375 50.7031 11.6797V11.6641C50.7031 11.1328 50.3047 10.7734 49.3203 10.5469L47.9688 10.2344C46.3672 9.86719 45.625 9.14062 45.625 7.89844V7.89062C45.625 6.41406 47 5.35156 48.9219 5.35156C50.8594 5.35156 52.1016 6.32031 52.25 7.70312V7.71094H50.6328V7.69531C50.4688 7.10156 49.8672 6.65625 48.9141 6.65625C47.9844 6.65625 47.3125 7.11719 47.3125 7.79688V7.8125C47.3125 8.34375 47.7031 8.67188 48.6562 8.89844L50 9.20312C51.6328 9.58594 52.4141 10.2812 52.4141 11.5078V11.5234C52.4141 13.0938 50.9141 14.1641 48.8984 14.1641ZM57.0672 14.1641C55.0203 14.1641 53.7234 13.2031 53.5594 11.7812V11.7734H55.2547L55.2625 11.7812C55.4734 12.4219 56.0906 12.8516 57.0984 12.8516C58.1453 12.8516 58.8719 12.375 58.8719 11.6797V11.6641C58.8719 11.1328 58.4734 10.7734 57.4891 10.5469L56.1375 10.2344C54.5359 9.86719 53.7937 9.14062 53.7937 7.89844V7.89062C53.7937 6.41406 55.1687 5.35156 57.0906 5.35156C59.0281 5.35156 60.2703 6.32031 60.4187 7.70312V7.71094H58.8016V7.69531C58.6375 7.10156 58.0359 6.65625 57.0828 6.65625C56.1531 6.65625 55.4812 7.11719 55.4812 7.79688V7.8125C55.4812 8.34375 55.8719 8.67188 56.825 8.89844L58.1687 9.20312C59.8016 9.58594 60.5828 10.2812 60.5828 11.5078V11.5234C60.5828 13.0938 59.0828 14.1641 57.0672 14.1641ZM64.6344 14.1406C63.0172 14.1406 61.8219 13.1562 61.8219 11.6172V11.6016C61.8219 10.0859 62.9625 9.20312 64.9859 9.07812L67.2828 8.94531V8.19531C67.2828 7.26562 66.6969 6.75 65.5484 6.75C64.6109 6.75 63.9938 7.09375 63.7906 7.69531L63.7828 7.72656H62.15L62.1578 7.67188C62.3609 6.28125 63.6969 5.35156 65.6266 5.35156C67.7594 5.35156 68.9625 6.41406 68.9625 8.19531V14H67.2828V12.7969H67.15C66.65 13.6562 65.7594 14.1406 64.6344 14.1406ZM63.5094 11.5469C63.5094 12.3281 64.1734 12.7891 65.0875 12.7891C66.3531 12.7891 67.2828 11.9609 67.2828 10.8672V10.1406L65.2125 10.2734C64.0406 10.3438 63.5094 10.7656 63.5094 11.5312V11.5469ZM71.6 16.9844C71.3891 16.9844 71.1391 16.9688 70.9203 16.9453V15.6094C71.0844 15.6328 71.2953 15.6406 71.4906 15.6406C72.2797 15.6406 72.7484 15.3047 73.0063 14.4453L73.1313 14.0078L70.0531 5.51562H71.8813L74.0063 12.2969H74.1547L76.2719 5.51562H78.0531L74.8969 14.3281C74.1781 16.3594 73.3188 16.9844 71.6 16.9844ZM82.7063 14.1641C80.2219 14.1641 78.7219 12.4688 78.7219 9.78125V9.77344C78.7219 7.125 80.2531 5.35156 82.6203 5.35156C84.9875 5.35156 86.4406 7.0625 86.4406 9.60938V10.2031H80.425C80.4563 11.8281 81.3469 12.7734 82.7453 12.7734C83.8313 12.7734 84.4797 12.2344 84.6828 11.7969L84.7141 11.7344L86.3469 11.7266L86.3313 11.7969C86.05 12.9141 84.8781 14.1641 82.7063 14.1641ZM82.6281 6.74219C81.4719 6.74219 80.5969 7.53125 80.4484 8.99219H84.7609C84.6281 7.47656 83.7766 6.74219 82.6281 6.74219ZM87.9609 14V12.8984L92.6484 6.98438V6.85156H87.9922V5.51562H94.6484V6.67969L90.0625 12.5312V12.6641H94.6953V14H87.9609Z" fill="#007AFF"/>
</svg>
