<svg width="15" height="15" viewBox="0 0 15 15" fill="none" xmlns="http://www.w3.org/2000/svg">
<path d="M14.5 1.5V6C14.5 6.5625 14.0312 7 13.5 7H9C8.4375 7 8 6.5625 8 6C8 5.46875 8.4375 5 9 5H10.9688C10.0312 3.78125 8.5625 3.03125 6.96875 3.03125C4.21875 3.03125 2 5.25 2 8C2 10.7812 4.21875 13 6.96875 13C8.0625 13 9.09375 12.6562 9.96875 12C10.4062 11.6875 11.0312 11.7812 11.375 12.2188C11.7188 12.6562 11.625 13.2812 11.1875 13.625C9.96875 14.5312 8.5 15 6.96875 15C3.125 15 0 11.875 0 8C0 4.15625 3.125 1.03125 6.96875 1.03125C9.15625 1.03125 11.1562 2.03125 12.5 3.71875V1.5C12.5 0.96875 12.9375 0.5 13.5 0.5C14.0312 0.5 14.5 0.96875 14.5 1.5Z" fill="#007AFF"/>
</svg>
