<svg width="11" height="10" viewBox="0 0 11 10" fill="none" xmlns="http://www.w3.org/2000/svg">
<path d="M9.89453 7.98047C10.2754 8.33203 10.2754 8.94727 9.89453 9.29883C9.71875 9.47461 9.48438 9.5625 9.25 9.5625C8.98633 9.5625 8.75195 9.47461 8.57617 9.29883L5.5 6.22266L2.39453 9.29883C2.21875 9.47461 1.98438 9.5625 1.75 9.5625C1.48633 9.5625 1.25195 9.47461 1.07617 9.29883C0.695312 8.94727 0.695312 8.33203 1.07617 7.98047L4.15234 4.875L1.07617 1.79883C0.695312 1.44727 0.695312 0.832031 1.07617 0.480469C1.42773 0.0996094 2.04297 0.0996094 2.39453 0.480469L5.5 3.55664L8.57617 0.480469C8.92773 0.0996094 9.54297 0.0996094 9.89453 0.480469C10.2754 0.832031 10.2754 1.44727 9.89453 1.79883L6.81836 4.9043L9.89453 7.98047Z" fill="white"/>
</svg>
