<svg width="12" height="10" viewBox="0 0 12 10" fill="none" xmlns="http://www.w3.org/2000/svg">
<path d="M10.7656 5.53906L7.01562 9.28906C6.875 9.42969 6.6875 9.5 6.5 9.5C6.28906 9.5 6.10156 9.42969 5.96094 9.28906C5.65625 9.00781 5.65625 8.51562 5.96094 8.23438L8.42188 5.75H1.25C0.828125 5.75 0.5 5.42188 0.5 5C0.5 4.60156 0.828125 4.25 1.25 4.25H8.42188L5.96094 1.78906C5.65625 1.50781 5.65625 1.01562 5.96094 0.734375C6.24219 0.429688 6.73438 0.429688 7.01562 0.734375L10.7656 4.48438C11.0703 4.76562 11.0703 5.25781 10.7656 5.53906Z" fill="#707070"/>
</svg>
