<svg width="26" height="24" viewBox="0 0 26 24" fill="none" xmlns="http://www.w3.org/2000/svg">
<rect width="26" height="24" rx="12" fill="#13A3DD"/>
<rect width="26" height="24" rx="12" fill="white" fill-opacity="0.64"/>
<path d="M17.9766 11.5039C17.8125 11.668 17.5938 11.75 17.375 11.75C17.1289 11.75 16.9102 11.668 16.7461 11.5039L13.875 8.63281V17C13.875 17.4922 13.4648 17.875 13 17.875C12.5625 17.875 12.125 17.4922 12.125 17V8.63281L9.22656 11.5039C8.89844 11.8594 8.32422 11.8594 7.99609 11.5039C7.64062 11.1758 7.64062 10.6016 7.99609 10.2734L12.3711 5.89844C12.6992 5.54297 13.2734 5.54297 13.6016 5.89844L17.9766 10.2734C18.332 10.6016 18.332 11.1758 17.9766 11.5039Z" fill="white"/>
</svg>
