<svg width="21" height="19" viewBox="0 0 21 19" fill="none" xmlns="http://www.w3.org/2000/svg">
<path d="M18.4609 0.75C19.8672 0.75 20.9609 1.88281 20.9609 3.25V15.75C20.9609 17.1562 19.8281 18.25 18.4609 18.25H3.46094C2.09375 18.25 0.960938 17.1562 0.960938 15.75V3.25C0.960938 1.88281 2.09375 0.75 3.46094 0.75H18.4609ZM5.33594 3.25C4.32031 3.25 3.46094 4.10938 3.46094 5.125C3.46094 6.17969 4.24219 7 5.33594 7C6.39062 7 7.21094 6.17969 7.21094 5.125C7.21094 4.10938 6.35156 3.25 5.33594 3.25ZM18.4219 15.4375C18.5 15.2422 18.5 14.9688 18.3828 14.8125L13.3828 7.3125C13.2656 7.11719 13.0703 7 12.875 7C12.6406 7 12.4453 7.11719 12.3281 7.3125L8.69531 12.7812L7.40625 11.0234C7.28906 10.8672 7.13281 10.75 6.9375 10.75C6.70312 10.75 6.54688 10.8672 6.42969 11.0234L3.69531 14.7734C3.53906 14.9688 3.53906 15.2031 3.61719 15.4375C3.73438 15.6328 3.92969 15.75 4.20312 15.75H17.875C18.0703 15.75 18.3047 15.6328 18.4219 15.4375Z" fill="white"/>
</svg>
