<svg width="23" height="19" viewBox="0 0 23 19" fill="none" xmlns="http://www.w3.org/2000/svg">
<path d="M11.7148 11.5C9.71094 11.5 8.05859 9.88281 8.09375 7.84375C8.09375 5.83984 9.71094 4.1875 11.7148 4.1875C13.7188 4.1875 15.3711 5.83984 15.3711 7.84375C15.3711 9.88281 13.7539 11.5 11.7148 11.5ZM13.4727 12.625C16.25 12.625 18.5 14.7344 18.5 17.3359C18.5 17.8633 18.043 18.25 17.4805 18.25H5.98438C5.42188 18.25 5 17.8633 5 17.3359C5 14.7344 7.21484 12.625 9.99219 12.625H13.4727ZM18.5 5.875C16.918 5.875 15.6875 4.64453 15.6875 3.0625C15.6875 1.51562 16.918 0.25 18.5 0.25C20.0469 0.25 21.3125 1.51562 21.3125 3.0625C21.3125 4.64453 20.0469 5.875 18.5 5.875ZM6.93359 7.84375C6.93359 9.03906 7.39062 10.1289 8.12891 10.9375H1.09766C0.746094 10.9375 0.5 10.6562 0.5 10.3047C0.5 8.47656 1.87109 7 3.59375 7H5.73828C6.19531 7 6.61719 7.10547 7.00391 7.31641C6.96875 7.49219 6.93359 7.66797 6.93359 7.84375ZM5 5.875C3.41797 5.875 2.1875 4.64453 2.1875 3.0625C2.1875 1.51562 3.41797 0.25 5 0.25C6.54688 0.25 7.8125 1.51562 7.8125 3.0625C7.8125 4.64453 6.54688 5.875 5 5.875ZM19.8711 7C21.5938 7 23 8.47656 23 10.3047C23 10.6562 22.7188 10.9375 22.3672 10.9375H15.3359C16.0742 10.1289 16.4961 9.03906 16.4961 7.84375C16.4961 7.66797 16.4609 7.49219 16.4609 7.31641C16.8477 7.14062 17.2695 7 17.7266 7H19.8711Z" fill="black"/>
</svg>
