<svg width="57" height="64" viewBox="0 0 57 64" fill="none" xmlns="http://www.w3.org/2000/svg">
<path d="M47.625 42.375C53 46.375 56.5 52.625 56.5 59.75C56.5 62.125 54.5 64 52.125 64H4.75C2.375 64 0.5 62.125 0.5 59.75C0.5 52.625 3.875 46.375 9.25 42.375L4.625 30.75C4 29.5 5 28 6.5 28H13.625C12.875 26.25 12.5 24.125 12.5 22C12.5 21.5 12.5 21 12.625 20.5C7.625 19.5 4.5 17.875 4.5 16C4.5 14 8.375 12.25 14.5 11.125C16 5.75 18.375 0 21.75 0C23.125 0 24.25 0.625 25.25 1.375C27.125 2.875 29.75 2.875 31.75 1.375C32.625 0.625 33.875 0 35.125 0C38.5 0 40.875 5.75 42.375 11.25C48.5 12.25 52.5 14 52.5 16C52.5 17.875 49.25 19.5 44.25 20.5C44.375 21 44.5 21.5 44.5 22C44.5 24.125 44 26.25 43.125 28H50.375C51.875 28 52.875 29.5 52.25 30.75L47.625 42.375ZM22.5 60L26.5 44L24.5 40L16.5 36L22.5 60ZM34.375 60L40.5 36L32.5 40L30.5 44L34.375 60ZM40.5 23.25V21.25C36.875 21.75 32.875 22 28.5 22C24 22 20 21.75 16.5 21.25V23.25C16.5 25.875 18.625 28 21.25 28H22.75C24.875 28 26.625 26.75 27.25 24.875C27.375 24.375 27.875 24 28.5 24C29 24 29.5 24.375 29.625 25C30.25 26.75 32 28 34.125 28H35.625C38.25 28 40.5 25.875 40.5 23.25Z" fill="#939393"/>
</svg>
