<svg width="20" height="16" viewBox="0 0 20 16" fill="none" xmlns="http://www.w3.org/2000/svg">
<path d="M7 8C4.78125 8 3 6.21875 3 4C3 1.8125 4.78125 0 7 0C9.1875 0 11 1.8125 11 4C11 6.21875 9.1875 8 7 8ZM8.5625 9.5C11.5625 9.5 14 11.9375 14 14.9375C14 15.5312 13.5 16 12.9062 16H1.0625C0.46875 16 0 15.5312 0 14.9375C0 11.9375 2.40625 9.5 5.40625 9.5H8.5625ZM14.9688 10C17.75 10 20 12.25 20 15C20 15.5625 19.5312 16 19 16H14.6875C14.875 15.6875 15 15.3438 15 14.9375C15 12.9688 14.0938 11.1875 12.6562 10H14.9688ZM13.5 8C12.5 8 11.625 7.625 11 6.96875C11.625 6.15625 12 5.125 12 4C12 3.1875 11.75 2.40625 11.4062 1.71875C11.9688 1.28125 12.6875 1 13.5 1C15.4062 1 17 2.59375 17 4.5C17 6.4375 15.4062 8 13.5 8Z" fill="black"/>
</svg>
