<svg width="21" height="17" viewBox="0 0 21 17" fill="none" xmlns="http://www.w3.org/2000/svg">
<path d="M10.1836 5.41016C10.2891 5.41016 10.3945 5.375 10.5 5.375C12.3633 5.375 13.875 6.88672 13.875 8.75C13.875 10.6133 12.3633 12.125 10.5 12.125C8.60156 12.125 7.125 10.6133 7.125 8.75C7.125 8.67969 7.125 8.57422 7.125 8.46875C7.44141 8.64453 7.82812 8.75 8.25 8.75C9.48047 8.75 10.5 7.76562 10.5 6.5C10.5 6.11328 10.3594 5.72656 10.1836 5.41016ZM17.25 3.72266C18.9023 5.23438 19.9922 7.0625 20.5195 8.32812C20.625 8.60938 20.625 8.92578 20.5195 9.20703C19.9922 10.4375 18.9023 12.2656 17.25 13.8125C15.5977 15.3594 13.3125 16.625 10.5 16.625C7.65234 16.625 5.36719 15.3594 3.71484 13.8125C2.0625 12.2656 0.972656 10.4375 0.445312 9.20703C0.339844 8.92578 0.339844 8.60938 0.445312 8.32812C0.972656 7.0625 2.0625 5.23438 3.71484 3.72266C5.36719 2.17578 7.65234 0.875 10.5 0.875C13.3125 0.875 15.5977 2.17578 17.25 3.72266ZM10.5 3.6875C7.6875 3.6875 5.4375 5.97266 5.4375 8.75C5.4375 11.5625 7.6875 13.8125 10.5 13.8125C13.2773 13.8125 15.5625 11.5625 15.5625 8.75C15.5625 5.97266 13.2773 3.6875 10.5 3.6875Z" fill="#007AFF"/>
</svg>
