<svg width="24" height="17" viewBox="0 0 24 17" fill="none" xmlns="http://www.w3.org/2000/svg">
<path d="M14.8125 0.375C15.7266 0.375 16.5 1.14844 16.5 2.0625V11.0625C16.5 12.0117 15.7266 12.75 14.8125 12.75H10.1016L10.4883 13.875H13.125C13.7227 13.875 14.25 14.4023 14.25 15C14.25 15.6328 13.7227 16.125 13.125 16.125H4.125C3.49219 16.125 3 15.6328 3 15C3 14.4023 3.49219 13.875 4.125 13.875H6.72656L7.11328 12.75H2.4375C1.48828 12.75 0.75 12.0117 0.75 11.0625V2.0625C0.75 1.14844 1.48828 0.375 2.4375 0.375H14.8125ZM3 2.625V10.5H14.25V2.625H3ZM21.5625 0.375C22.4766 0.375 23.25 1.14844 23.25 2.0625V14.4375C23.25 15.3867 22.4766 16.125 21.5625 16.125H19.3125C18.3633 16.125 17.625 15.3867 17.625 14.4375V2.0625C17.625 1.14844 18.3633 0.375 19.3125 0.375H21.5625ZM19.875 2.625C19.5586 2.625 19.3125 2.90625 19.3125 3.1875C19.3125 3.50391 19.5586 3.75 19.875 3.75H21C21.2812 3.75 21.5625 3.50391 21.5625 3.1875C21.5625 2.90625 21.2812 2.625 21 2.625H19.875ZM19.875 6H21C21.2812 6 21.5625 5.75391 21.5625 5.4375C21.5625 5.15625 21.2812 4.875 21 4.875H19.875C19.5586 4.875 19.3125 5.15625 19.3125 5.4375C19.3125 5.75391 19.5586 6 19.875 6ZM20.4375 13.3125C21.0352 13.3125 21.5625 12.8203 21.5625 12.1875C21.5625 11.5898 21.0352 11.0625 20.4375 11.0625C19.8047 11.0625 19.3125 11.5898 19.3125 12.1875C19.3125 12.8203 19.8047 13.3125 20.4375 13.3125Z" fill="#007AFF"/>
</svg>
