<svg width="17" height="14" viewBox="0 0 17 14" fill="none" xmlns="http://www.w3.org/2000/svg">
<path d="M8.23633 4.0918C8.32422 4.0918 8.41211 4.0625 8.5 4.0625C10.0527 4.0625 11.3125 5.32227 11.3125 6.875C11.3125 8.42773 10.0527 9.6875 8.5 9.6875C6.91797 9.6875 5.6875 8.42773 5.6875 6.875C5.6875 6.81641 5.6875 6.72852 5.6875 6.64062C5.95117 6.78711 6.27344 6.875 6.625 6.875C7.65039 6.875 8.5 6.05469 8.5 5C8.5 4.67773 8.38281 4.35547 8.23633 4.0918ZM14.125 2.68555C15.502 3.94531 16.4102 5.46875 16.8496 6.52344C16.9375 6.75781 16.9375 7.02148 16.8496 7.25586C16.4102 8.28125 15.502 9.80469 14.125 11.0938C12.748 12.3828 10.8438 13.4375 8.5 13.4375C6.12695 13.4375 4.22266 12.3828 2.8457 11.0938C1.46875 9.80469 0.560547 8.28125 0.121094 7.25586C0.0332031 7.02148 0.0332031 6.75781 0.121094 6.52344C0.560547 5.46875 1.46875 3.94531 2.8457 2.68555C4.22266 1.39648 6.12695 0.3125 8.5 0.3125C10.8438 0.3125 12.748 1.39648 14.125 2.68555ZM8.5 2.65625C6.15625 2.65625 4.28125 4.56055 4.28125 6.875C4.28125 9.21875 6.15625 11.0938 8.5 11.0938C10.8145 11.0938 12.7188 9.21875 12.7188 6.875C12.7188 4.56055 10.8145 2.65625 8.5 2.65625Z" fill="white"/>
</svg>
